# xmcd CD database file
#
# Track frame offsets:
#	150
#	22848
#	45257
#	65960
#	86631
#	108283
#	131169
#	153585
#	174977
#	196684
#	219549
#	241669
#	261878
#	283360
#
# Disc length: 4038 seconds
#
# Revision: 0
# Processed by: cddbd v1.5.1PL0 Copyright (c) Steve Scherf et al.
# Submitted via: CDex 1.50beta9
#
DISCID=c10fc40e
DTITLE=Jerry Rivera - Grandes Exitos
DYEAR=1900
DGENRE=Salsa
TTITLE0=Amores Como El Nuestro
TTITLE1=Que Hay De Malo
TTITLE2=Casi Un Hechizo
TTITLE3=Nada Sin Ti
TTITLE4=Como Un Milagro
TTITLE5=Cuenta Conmigo
TTITLE6=Cara De Niño
TTITLE7=Dime
TTITLE8=Me Estoy Enamorando
TTITLE9=Esa Niña
TTITLE10=No Hieras Mi Vida
TTITLE11=Dia Y Noche Pienso En Ella
TTITLE12=Estoy Enloquecido Por Ti
TTITLE13=Ese
EXTD=
EXTT0=
EXTT1=
EXTT2=
EXTT3=
EXTT4=
EXTT5=
EXTT6=
EXTT7=
EXTT8=
EXTT9=
EXTT10=
EXTT11=
EXTT12=
EXTT13=
PLAYORDER=
